HIERARCHY
ROOT Hips
{
	OFFSET 0.000000 0.000000 0.000000
	CHANNELS 6 Xposition Yposition Zposition Zrotation Yrotation Xrotation 
	JOINT LeftUpLeg_virtual
	{
		OFFSET 0.000000 0.000000 0.000000
		CHANNELS 3 Zrotation Yrotation Xrotation
		JOINT LeftUpLeg
		{
			OFFSET 10.205400 -3.823500 0.155100
			CHANNELS 3 Zrotation Yrotation Xrotation
			JOINT LeftLeg
			{
				OFFSET 0.708757 -12.982077 0.567790
				CHANNELS 3 Zrotation Yrotation Xrotation
				JOINT LeftFoot
				{
					OFFSET -0.708756 -10.717838 -2.184338
					CHANNELS 3 Zrotation Yrotation Xrotation
					JOINT LeftToeBase
					{
						OFFSET 0.108149 -7.191104 7.560241
						CHANNELS 3 Zrotation Yrotation Xrotation
						End Site
						{
							OFFSET 0.000000 0.000000 0.000000
						}
					}
				}
			}
		}
	}
	JOINT RightUpLeg_virtual
	{
		OFFSET 0.000000 0.000000 0.000000
		CHANNELS 3 Zrotation Yrotation Xrotation
		JOINT RightUpLeg
		{
			OFFSET -10.205400 -3.823500 0.005500
			CHANNELS 3 Zrotation Yrotation Xrotation
			JOINT RightLeg
			{
				OFFSET -0.708756 -12.982134 0.610632
				CHANNELS 3 Zrotation Yrotation Xrotation
				JOINT RightFoot
				{
					OFFSET 0.708754 -10.717769 -1.945823
					CHANNELS 3 Zrotation Yrotation Xrotation
					JOINT RightToeBase
					{
						OFFSET -0.108140 -7.191069 7.372968
						CHANNELS 3 Zrotation Yrotation Xrotation
						End Site
						{
							OFFSET 0.000000 0.000000 0.000000
						}
					}
				}
			}
		}
	}
	JOINT Spine_virtual
	{
		OFFSET 0.000000 0.000000 0.000000
		CHANNELS 3 Zrotation Yrotation Xrotation
		JOINT Spine
		{
			OFFSET 0.000000 6.876099 0.125700
			CHANNELS 3 Zrotation Yrotation Xrotation
			JOINT Spine1
			{
				OFFSET 0.000000 8.022060 0.146608
				CHANNELS 3 Zrotation Yrotation Xrotation
				JOINT Spine2
				{
					OFFSET 0.000000 9.168068 0.167552
					CHANNELS 3 Zrotation Yrotation Xrotation
					JOINT Neck_virtual
					{
						OFFSET 0.000000 0.000000 0.000000
						CHANNELS 3 Zrotation Yrotation Xrotation
						JOINT Neck
						{
							OFFSET 0.000000 10.314075 0.188496
							CHANNELS 3 Zrotation Yrotation Xrotation
							JOINT Head
							{
								OFFSET 0.000000 7.643700 -2.377400
								CHANNELS 3 Zrotation Yrotation Xrotation
								End Site
								{
									OFFSET 0.000000 0.000000 0.000000
								}
							}
						}
					}
					JOINT LeftShoulder_virtual
					{
						OFFSET 0.000000 0.000000 0.000000
						CHANNELS 3 Zrotation Yrotation Xrotation
						JOINT LeftShoulder
						{
							OFFSET 4.392200 8.824978 0.174984
							CHANNELS 3 Zrotation Yrotation Xrotation
							JOINT LeftArm
							{
								OFFSET 8.771219 -2.981674 -0.026999
								CHANNELS 3 Zrotation Yrotation Xrotation
								JOINT LeftForeArm
								{
									OFFSET 8.512804 0.000000 -0.000000
									CHANNELS 3 Zrotation Yrotation Xrotation
									JOINT LeftHand
									{
										OFFSET 18.484802 0.000000 -0.000000
										CHANNELS 3 Zrotation Yrotation Xrotation
										End Site
										{
											OFFSET 0.000000 0.000000 0.000000
										}
									}
								}
							}
						}
					}
					JOINT RightShoulder_virtual
					{
						OFFSET 0.000000 0.000000 0.000000
						CHANNELS 3 Zrotation Yrotation Xrotation
						JOINT RightShoulder
						{
							OFFSET -4.392200 8.824993 0.141379
							CHANNELS 3 Zrotation Yrotation Xrotation
							JOINT RightArm
							{
								OFFSET -8.771282 -2.981682 -0.094208
								CHANNELS 3 Zrotation Yrotation Xrotation
								JOINT RightForeArm
								{
									OFFSET -8.494598 0.000000 0.000000
									CHANNELS 3 Zrotation Yrotation Xrotation
									JOINT RightHand
									{
										OFFSET -18.483803 0.000000 0.000001
										CHANNELS 3 Zrotation Yrotation Xrotation
										End Site
										{
											OFFSET 0.000000 0.000000 0.000000
										}
									}
								}
							}
						}
					}
				}
			}
		}
	}
}
MOTION
Frames: 7
Frame Time: 0.033333
1.797561 36.367863 -12.548396 -179.925966 2.036155 179.831354 -1.542082 -3.383470 8.677679 -6.750866 -4.991595 -17.371526 10.851867 4.885390 15.411473 -3.812339 -0.868576 11.413816 0.000000 0.000000 0.000000 2.760450 -2.108164 8.243278 -2.872859 0.356287 -13.956855 -7.410541 0.748599 18.787827 6.774315 1.643741 6.798041 0.000000 0.000000 0.000000 1.929876 -0.015475 -4.584032 -4.558984 4.474427 -3.303991 -0.541794 -3.025236 3.345498 -0.019343 -0.024481 0.001685 -1.040338 -1.224538 4.653240 1.802842 -4.076624 7.836656 0.000000 0.000000 0.000000 0.454788 -0.443013 1.990149 6.483227 -3.429996 -4.283313 -6.422648 25.154811 -37.206738 -0.869070 -46.535581 -7.020351 0.000000 0.000000 0.000000 -2.950606 0.155113 1.559609 6.982377 -10.746972 -7.145659 19.689595 -30.863009 -35.270410 -0.972167 37.319020 -4.375107 0.000000 0.000000 0.000000 
1.795529 36.376694 -12.585680 -179.883523 2.011910 179.848730 -1.513784 -3.328059 8.513806 -6.702042 -4.955055 -17.580741 10.659731 4.711838 15.196372 -4.022930 -1.046786 11.273121 0.000000 0.000000 0.000000 2.790209 -2.157173 8.355126 -2.585266 -0.240940 -13.751943 -7.766191 0.075897 19.194544 5.985467 0.950035 6.842261 0.000000 0.000000 0.000000 1.957853 0.004543 -4.599355 -4.538035 4.490717 -3.332045 -0.484854 -3.021166 3.334892 -0.070279 -0.016060 0.005099 -1.042581 -1.251437 4.701146 1.800860 -4.073644 7.868240 0.000000 0.000000 0.000000 0.422534 -0.450152 2.049285 6.488252 -3.416879 -4.577422 -6.436483 25.161408 -37.127146 -0.959472 -46.553169 -6.907635 0.000000 0.000000 0.000000 -2.939450 0.141551 1.560977 7.013683 -10.806433 -7.148229 19.704688 -30.843157 -35.340686 -0.949149 37.308556 -4.354117 0.000000 0.000000 0.000000 
1.800789 36.380062 -12.632586 -179.904055 1.975131 179.824018 -1.546085 -3.310728 8.552226 -6.688455 -4.867822 -17.538350 10.608988 4.703765 15.234672 -4.074634 -1.050937 11.273399 0.000000 0.000000 0.000000 2.807718 -2.175534 8.393750 -2.627972 -0.239173 -13.661650 -7.789709 0.072296 19.216601 5.967565 0.968709 6.782575 0.000000 0.000000 0.000000 1.975606 -0.010339 -4.597294 -4.576528 4.482858 -3.356261 -0.537040 -3.032656 3.350189 0.001132 -0.034791 0.028320 -1.059433 -1.280360 4.654331 1.783587 -4.094775 7.893511 0.000000 0.000000 0.000000 0.450962 -0.434084 1.979462 6.401656 -3.437247 -4.361438 -6.402809 25.238432 -37.177761 -0.843078 -46.448722 -7.007504 0.000000 0.000000 0.000000 -2.943350 0.143501 1.530258 6.917102 -10.777734 -7.160425 19.831779 -30.873008 -35.532492 -0.932025 37.345644 -4.366311 0.000000 0.000000 0.000000 
1.809280 36.381561 -12.671525 -179.899929 1.827355 179.959065 -1.514713 -3.491384 8.484234 -6.647056 -4.760245 -17.589055 10.560036 4.783250 15.319928 -4.116983 -1.078074 11.139355 0.000000 0.000000 0.000000 2.867536 -2.154539 8.336046 -2.607916 -0.308631 -13.658530 -7.803769 0.082545 19.286491 5.889188 0.961014 6.589563 0.000000 0.000000 0.000000 1.956296 -0.058012 -4.702927 -4.584183 4.445173 -3.453147 -0.510660 -3.070393 3.304928 0.010235 -0.066171 0.029296 -1.073264 -1.112876 4.692636 1.781198 -4.123395 7.943032 0.000000 0.000000 0.000000 0.406048 -0.424813 2.033473 6.406203 -3.416484 -4.414241 -6.428854 25.259505 -37.101366 -0.852580 -46.481585 -6.935582 0.000000 0.000000 0.000000 -2.979614 0.130723 1.612450 6.855659 -10.794108 -7.196954 19.998649 -30.865628 -35.894953 -0.914243 37.355288 -4.378430 0.000000 0.000000 0.000000 
1.818716 36.383533 -12.705534 -179.910639 1.838583 179.965922 -1.505253 -3.448434 8.501718 -6.617457 -4.713681 -17.563538 10.500843 4.845114 15.343462 -4.149559 -1.088646 11.126158 0.000000 0.000000 0.000000 2.897162 -2.131984 8.345050 -2.626303 -0.270700 -13.584083 -7.817478 0.096941 19.292274 5.838873 0.984068 6.576527 0.000000 0.000000 0.000000 1.974211 -0.025268 -4.774231 -4.570887 4.470851 -3.394135 -0.494795 -3.047848 3.334372 0.002396 -0.036873 0.019450 -1.034384 -1.236237 4.623770 1.850092 -4.128097 8.031772 0.000000 0.000000 0.000000 0.441490 -0.458714 1.976598 6.411451 -3.527431 -4.311382 -6.405082 25.311896 -37.010968 -0.786110 -46.496516 -6.931127 0.000000 0.000000 0.000000 -2.949024 0.126722 1.505773 6.879411 -10.793999 -7.176645 20.056603 -30.918675 -35.998444 -0.978352 37.319303 -4.506944 0.000000 0.000000 0.000000 
1.825266 36.382935 -12.731614 -179.923889 1.797868 179.957644 -1.516637 -3.475341 8.505281 -6.590544 -4.709658 -17.533343 10.463091 4.878255 15.404689 -4.169857 -1.101208 11.113531 0.000000 0.000000 0.000000 2.901889 -2.143136 8.336172 -2.639009 -0.284522 -13.521218 -7.793675 0.089358 19.349950 5.782631 1.008035 6.499837 0.000000 0.000000 0.000000 1.957031 -0.025517 -4.716609 -4.582303 4.489181 -3.486790 -0.487888 -3.019320 3.286449 0.006331 -0.019701 0.046388 -1.031559 -1.332499 4.667876 1.903234 -4.169152 8.149417 0.000000 0.000000 0.000000 0.445892 -0.472904 2.026133 6.392176 -3.566566 -4.609395 -6.214822 25.269900 -36.830931 -0.898977 -46.433596 -6.743274 0.000000 0.000000 0.000000 -2.928242 0.117620 1.484612 6.835121 -10.816510 -7.117066 20.200047 -31.092503 -36.389807 -0.945842 37.407901 -4.502402 0.000000 0.000000 0.000000 
1.828009 36.383160 -12.760087 -179.996276 1.779273 179.985183 -1.599538 -3.528314 8.486099 -6.588108 -4.741831 -17.517844 10.440444 4.902344 15.485697 -4.171329 -1.103588 11.050355 0.000000 0.000000 0.000000 2.851514 -2.162718 8.305938 -2.715236 -0.282891 -13.481795 -7.751077 0.060304 19.415555 5.735879 1.039465 6.430738 0.000000 0.000000 0.000000 1.910501 -0.087695 -4.759656 -4.586820 4.461258 -3.514786 -0.503784 -3.021029 3.270369 -0.022470 -0.038464 0.029500 -1.000068 -1.410438 4.679474 2.004487 -4.200685 8.278307 0.000000 0.000000 0.000000 0.483245 -0.465231 2.012196 6.401916 -3.637748 -4.336508 -6.313368 25.296977 -36.858952 -0.697346 -46.397550 -6.842249 0.000000 0.000000 0.000000 -2.889914 0.137606 1.550004 6.835828 -10.753162 -7.270465 20.282173 -31.203815 -36.582524 -0.930034 37.518608 -4.486779 0.000000 0.000000 0.000000 
